<svg xmlns="http://www.w3.org/2000/svg" viewBox="0 0 240 70" fill="none">
  <!-- Salesforce cloud shape -->
  <g transform="translate(8, 5)">
    <path d="M46.5 15.5c2.8-2.9 6.7-4.7 11-4.7 5.8 0 10.8 3.2 13.4 7.9 2.2-1 4.7-1.5 7.3-1.5 9.7 0 17.5 7.8 17.5 17.5 0 .5 0 1-.1 1.5 3.5 2.7 5.7 6.9 5.7 11.6 0 8.1-6.6 14.7-14.7 14.7-1.3 0-2.5-.2-3.7-.5-2.8 4.5-7.8 7.5-13.4 7.5-2.5 0-4.8-.6-6.9-1.6-2.7 4.8-7.8 8-13.7 8-5.3 0-10-2.7-12.8-6.7-1.6.5-3.3.8-5.1.8-9.2 0-16.7-7.5-16.7-16.7 0-4.1 1.5-7.8 3.9-10.7-.8-2-1.2-4.2-1.2-6.5 0-9.7 7.9-17.6 17.6-17.6 4.5 0 8.6 1.7 11.8 4.5z" fill="#00A1E0"/>
    <!-- "salesforce" text inside cloud -->
    <text x="50" y="42" font-family="'Helvetica Neue', Arial, sans-serif" font-size="14.5" font-weight="700" fill="#FFFFFF" text-anchor="middle" letter-spacing="0.3">salesforce</text>
  </g>
  <!-- Registered trademark symbol area -->
  <text x="108" y="18" font-family="Arial, sans-serif" font-size="7" fill="#00A1E0">&#174;</text>
</svg>